<svg width="401" height="400" viewBox="0 0 401 400" fill="none" xmlns="http://www.w3.org/2000/svg">
<path d="M398 200C398 309.076 309.576 397.5 200.5 397.5C91.4238 397.5 3 309.076 3 200C3 90.9238 91.4238 2.5 200.5 2.5C309.576 2.5 398 90.9238 398 200Z" fill="#FFB763" stroke="#974800" stroke-width="5"/>
<circle cx="294" cy="63" r="3" fill="#C78141"/>
<circle cx="257" cy="369" r="2" fill="#C78141"/>
<circle cx="292" cy="166" r="2" fill="#C78141"/>
<circle cx="342" cy="309" r="3" fill="#C78141"/>
<circle cx="42" cy="176" r="3" fill="#C78141"/>
<circle cx="161" cy="323" r="2" fill="#C78141"/>
<circle cx="146" cy="318" r="3" fill="#C78141"/>
<circle cx="329" cy="212" r="3" fill="#C78141"/>
<g filter="url(#filter0_d_1_34)">
<path d="M96.4458 181.746C93.3152 158.025 107.44 147.506 114.894 145.212C120.399 129.851 126.338 124.323 142.845 120.855C142.845 115.561 158.374 102.273 175.828 108.677C183.654 100.205 197.676 96.3731 212.724 104.441C230.252 99.4623 243.839 103.652 255.21 115.031C269.889 115.974 282.705 122.934 289.311 134.622C301.384 139.597 305.628 146.974 307.2 162.155C312.126 166.725 314.512 175.528 313.908 181.746M96.4458 181.746V194.454C97.2328 215.017 96.9474 226.583 103.154 246.873C109.37 263.911 114.766 273.429 130.547 290.291C149.515 301.429 160.512 305.587 180.3 312H230.054C251.824 307.414 262.545 302.914 278.13 290.291C294.191 275.393 300.865 266.022 307.2 246.873C310.4 230.437 313.959 218.736 313.908 194.454V181.746M96.4458 181.746H313.908" stroke="#EC984B" stroke-width="7"/>
<path d="M305 151C305 151 347.5 111.5 350.5 110C353.5 108.5 356.5 110 356.5 110C356.5 110 361 113.5 362 115.5C363 117.5 363.5 118.5 362 122C360.5 125.5 307.5 162.5 307.5 162.5" stroke="#EC984B" stroke-width="7"/>
</g>
<path d="M94.4458 187.746C91.3152 164.025 105.44 153.506 112.894 151.212C118.399 135.851 124.338 130.323 140.845 126.855C140.845 121.561 156.374 108.273 173.828 114.677C181.654 106.205 195.676 102.373 210.724 110.441C228.252 105.462 241.839 109.652 253.21 121.031C267.889 121.974 280.705 128.934 287.311 140.622C299.384 145.597 303.628 152.974 305.2 168.155C310.126 172.725 312.512 181.528 311.908 187.746M94.4458 187.746V200.454C95.2328 221.017 94.9474 232.583 101.154 252.873C107.37 269.911 112.766 279.429 128.547 296.291C147.515 307.429 158.512 311.587 178.3 318H228.054C249.824 313.414 260.545 308.914 276.13 296.291C292.191 281.393 298.865 272.022 305.2 252.873C308.4 236.437 311.959 224.736 311.908 200.454V187.746M94.4458 187.746H311.908" stroke="#974800" stroke-width="5"/>
<path d="M303 157C303 157 345.5 117.5 348.5 116C351.5 114.5 354.5 116 354.5 116C354.5 116 359 119.5 360 121.5C361 123.5 361.5 124.5 360 128C358.5 131.5 305.5 168.5 305.5 168.5" stroke="#974800" stroke-width="5"/>
<path d="M155 20.5C75.8434 41.4727 20.6507 108.739 15.5 192.5" stroke="#FFC48D" stroke-width="9" stroke-linecap="round"/>
<path d="M122.5 155C120.91 151.93 132.199 135.067 146 137C154.03 123.425 159.953 119.857 174.5 125C181.428 119.83 186.831 116.004 196.5 116.5" stroke="#FFC48D" stroke-width="7" stroke-linecap="round"/>
<path d="M128 273C112.384 246.328 107.384 220.736 109.5 197" stroke="#FFC48D" stroke-width="7" stroke-linecap="round"/>
<path d="M109.5 197.5H154.5" stroke="#FFC48D" stroke-width="7" stroke-linecap="round"/>
<defs>
<filter id="filter0_d_1_34" x="88.4987" y="96.5008" width="281.948" height="226.999" filterUnits="userSpaceOnUse" color-interpolation-filters="sRGB">
<feFlood flood-opacity="0" result="BackgroundImageFix"/>
<feColorMatrix in="SourceAlpha" type="matrix" values="0 0 0 0 0 0 0 0 0 0 0 0 0 0 0 0 0 0 127 0" result="hardAlpha"/>
<feOffset dy="4"/>
<feGaussianBlur stdDeviation="2"/>
<feComposite in2="hardAlpha" operator="out"/>
<feColorMatrix type="matrix" values="0 0 0 0 0 0 0 0 0 0 0 0 0 0 0 0 0 0 0.25 0"/>
<feBlend mode="normal" in2="BackgroundImageFix" result="effect1_dropShadow_1_34"/>
<feBlend mode="normal" in="SourceGraphic" in2="effect1_dropShadow_1_34" result="shape"/>
</filter>
</defs>
</svg>
